<svg width="167" height="41" viewBox="0 0 167 41" fill="none" xmlns="http://www.w3.org/2000/svg">
<path d="M22.6108 27.82C22.6108 30.5133 21.8508 32.6867 20.3308 34.34C18.8108 35.9667 16.7441 36.9267 14.1308 37.22V40.66H13.1308V37.3H12.5308C11.7308 37.3 10.9308 37.22 10.1308 37.06V40.66H9.13078V36.82C7.79745 36.4733 6.49078 35.9267 5.21078 35.18L1.81078 36.9H0.930778V26.62H1.81078L5.25078 34.06C6.37078 34.8867 7.66411 35.5133 9.13078 35.94V21.78L8.05078 21.5C5.73078 20.8867 3.98411 19.8467 2.81078 18.38C1.63744 16.8867 1.05078 15.1267 1.05078 13.1C1.05078 10.5133 1.75744 8.38 3.17078 6.7C4.61078 5.02 6.59745 4.04667 9.13078 3.78V0.659999H10.1308V3.7H10.4108C11.4774 3.7 12.3841 3.76666 13.1308 3.9V0.659999H14.1308V4.06C15.1174 4.27333 16.0508 4.56667 16.9308 4.94L19.8508 3.7H20.7308V11.86H19.8508L16.9708 6.02C15.9574 5.54 15.0108 5.20667 14.1308 5.02V17.86L15.7308 18.3C18.0508 18.8867 19.7708 19.9 20.8908 21.34C22.0374 22.7533 22.6108 24.9133 22.6108 27.82ZM10.1308 4.58V16.82L13.1308 17.62V4.82C12.2508 4.66 11.3574 4.58 10.4508 4.58H10.1308ZM9.13078 16.58V4.66C7.18411 4.87333 5.66411 5.56667 4.57078 6.74C3.50411 7.88667 2.97078 9.32667 2.97078 11.06C2.97078 12.5 3.43745 13.6333 4.37078 14.46C5.33078 15.2867 6.73078 15.94 8.57078 16.42L9.13078 16.58ZM13.1308 36.42V22.82L10.1308 22.02V36.18C11.0108 36.34 11.9174 36.42 12.8508 36.42H13.1308ZM14.1308 36.34C16.1574 36.1267 17.7974 35.42 19.0508 34.22C20.3308 32.9933 20.9708 31.3667 20.9708 29.34C20.9708 27.7133 20.4774 26.4333 19.4908 25.5C18.5041 24.54 16.9041 23.78 14.6908 23.22L14.1308 23.06V36.34ZM28.1836 36.5V35.7L30.9836 35.3V5.7L28.1836 5.3V4.5H34.9836V35.3L37.7836 35.7V36.5H28.1836ZM55.2927 37.3C52.9727 37.3 50.946 36.6733 49.2127 35.42C47.4793 34.1667 46.1327 32.2867 45.1727 29.78C44.2127 27.2467 43.7327 24.1533 43.7327 20.5C43.7327 16.8467 44.2127 13.7667 45.1727 11.26C46.1327 8.72667 47.4793 6.83333 49.2127 5.58C50.946 4.32666 52.9727 3.7 55.2927 3.7C57.6127 3.7 59.6393 4.32666 61.3727 5.58C63.106 6.83333 64.4527 8.72667 65.4127 11.26C66.3727 13.7667 66.8527 16.8467 66.8527 20.5C66.8527 24.1533 66.3727 27.2467 65.4127 29.78C64.4527 32.2867 63.106 34.1667 61.3727 35.42C59.6393 36.6733 57.6127 37.3 55.2927 37.3ZM55.2927 36.38C57.2927 36.38 58.866 35.4067 60.0127 33.46C61.1593 31.5133 61.7327 28.4733 61.7327 24.34V16.62C61.7327 12.5133 61.1593 9.48667 60.0127 7.54C58.866 5.59333 57.2927 4.62 55.2927 4.62C53.2927 4.62 51.7193 5.59333 50.5727 7.54C49.426 9.48667 48.8527 12.5133 48.8527 16.62V24.34C48.8527 28.4467 49.426 31.4867 50.5727 33.46C51.7193 35.4067 53.2927 36.38 55.2927 36.38ZM95.9145 37.3C93.5945 37.3 91.5679 36.6733 89.8345 35.42C88.1012 34.1667 86.7545 32.2867 85.7945 29.78C84.8345 27.2467 84.3545 24.1533 84.3545 20.5C84.3545 16.8467 84.8345 13.7667 85.7945 11.26C86.7545 8.72667 88.1012 6.83333 89.8345 5.58C91.5679 4.32666 93.5945 3.7 95.9145 3.7C98.2345 3.7 100.261 4.32666 101.995 5.58C103.728 6.83333 105.075 8.72667 106.035 11.26C106.995 13.7667 107.475 16.8467 107.475 20.5C107.475 24.1533 106.995 27.2467 106.035 29.78C105.075 32.2867 103.728 34.1667 101.995 35.42C100.261 36.6733 98.2345 37.3 95.9145 37.3ZM95.9145 36.38C97.9145 36.38 99.4879 35.4067 100.635 33.46C101.781 31.5133 102.355 28.4733 102.355 24.34V16.62C102.355 12.5133 101.781 9.48667 100.635 7.54C99.4879 5.59333 97.9145 4.62 95.9145 4.62C93.9145 4.62 92.3412 5.59333 91.1945 7.54C90.0479 9.48667 89.4745 12.5133 89.4745 16.62V24.34C89.4745 28.4467 90.0479 31.4867 91.1945 33.46C92.3412 35.4067 93.9145 36.38 95.9145 36.38ZM125.366 37.3C123.046 37.3 121.019 36.6733 119.286 35.42C117.553 34.1667 116.206 32.2867 115.246 29.78C114.286 27.2467 113.806 24.1533 113.806 20.5C113.806 16.8467 114.286 13.7667 115.246 11.26C116.206 8.72667 117.553 6.83333 119.286 5.58C121.019 4.32666 123.046 3.7 125.366 3.7C127.686 3.7 129.713 4.32666 131.446 5.58C133.179 6.83333 134.526 8.72667 135.486 11.26C136.446 13.7667 136.926 16.8467 136.926 20.5C136.926 24.1533 136.446 27.2467 135.486 29.78C134.526 32.2867 133.179 34.1667 131.446 35.42C129.713 36.6733 127.686 37.3 125.366 37.3ZM125.366 36.38C127.366 36.38 128.939 35.4067 130.086 33.46C131.233 31.5133 131.806 28.4733 131.806 24.34V16.62C131.806 12.5133 131.233 9.48667 130.086 7.54C128.939 5.59333 127.366 4.62 125.366 4.62C123.366 4.62 121.793 5.59333 120.646 7.54C119.499 9.48667 118.926 12.5133 118.926 16.62V24.34C118.926 28.4467 119.499 31.4867 120.646 33.46C121.793 35.4067 123.366 36.38 125.366 36.38ZM154.818 37.3C152.498 37.3 150.471 36.6733 148.738 35.42C147.004 34.1667 145.658 32.2867 144.698 29.78C143.738 27.2467 143.258 24.1533 143.258 20.5C143.258 16.8467 143.738 13.7667 144.698 11.26C145.658 8.72667 147.004 6.83333 148.738 5.58C150.471 4.32666 152.498 3.7 154.818 3.7C157.138 3.7 159.164 4.32666 160.898 5.58C162.631 6.83333 163.978 8.72667 164.938 11.26C165.898 13.7667 166.378 16.8467 166.378 20.5C166.378 24.1533 165.898 27.2467 164.938 29.78C163.978 32.2867 162.631 34.1667 160.898 35.42C159.164 36.6733 157.138 37.3 154.818 37.3ZM154.818 36.38C156.818 36.38 158.391 35.4067 159.538 33.46C160.684 31.5133 161.258 28.4733 161.258 24.34V16.62C161.258 12.5133 160.684 9.48667 159.538 7.54C158.391 5.59333 156.818 4.62 154.818 4.62C152.818 4.62 151.244 5.59333 150.098 7.54C148.951 9.48667 148.378 12.5133 148.378 16.62V24.34C148.378 28.4467 148.951 31.4867 150.098 33.46C151.244 35.4067 152.818 36.38 154.818 36.38Z" fill="white"/>
</svg>
