<svg width="68" height="33" viewBox="0 0 68 33" fill="none" xmlns="http://www.w3.org/2000/svg">
<path d="M0.623439 32.5V31.7L3.42344 31.3V1.7L0.623439 1.3V0.5H7.42344V31.3L10.2234 31.7V32.5H0.623439ZM19.4525 32.5C19.6392 30.5267 20.0125 28.66 20.5725 26.9C21.1592 25.14 21.8125 23.54 22.5325 22.1C23.2792 20.66 24.2525 18.8733 25.4525 16.74C26.8658 14.26 27.9992 12.1533 28.8525 10.42C29.7058 8.66 30.4258 6.74 31.0125 4.66H17.6125L16.5325 9.42H15.4925V0.5H33.0525C32.7325 3.24667 32.2392 5.83333 31.5725 8.26C30.9058 10.66 29.9992 13.5667 28.8525 16.98C27.7058 20.26 26.8125 23.0467 26.1725 25.34C25.5592 27.6067 25.1458 29.9933 24.9325 32.5H19.4525ZM43.2525 17.7C41.3592 17.7 39.8258 16.9533 38.6525 15.46C37.5058 13.94 36.9325 11.78 36.9325 8.98C36.9325 6.18 37.5058 4.03333 38.6525 2.54C39.8258 1.04666 41.3592 0.299997 43.2525 0.299997C45.1725 0.299997 46.7058 1.04666 47.8525 2.54C49.0258 4.03333 49.6125 6.18 49.6125 8.98C49.6125 11.78 49.0258 13.94 47.8525 15.46C46.7058 16.9533 45.1725 17.7 43.2525 17.7ZM42.9725 32.5L58.9725 0.5H61.0125L45.0525 32.5H42.9725ZM43.2525 16.82C44.3192 16.82 45.1192 16.3667 45.6525 15.46C46.2125 14.5533 46.4925 13.0733 46.4925 11.02V6.94C46.4925 4.88667 46.2125 3.40667 45.6525 2.5C45.1192 1.59333 44.3192 1.14 43.2525 1.14C42.2125 1.14 41.4125 1.59333 40.8525 2.5C40.2925 3.40667 40.0125 4.88667 40.0125 6.94V11.02C40.0125 13.0733 40.2925 14.5533 40.8525 15.46C41.4125 16.3667 42.2125 16.82 43.2525 16.82ZM60.7325 32.7C58.8125 32.7 57.2658 31.9533 56.0925 30.46C54.9458 28.94 54.3725 26.78 54.3725 23.98C54.3725 21.18 54.9458 19.0333 56.0925 17.54C57.2658 16.0467 58.8125 15.3 60.7325 15.3C62.6258 15.3 64.1458 16.0467 65.2925 17.54C66.4658 19.0333 67.0525 21.18 67.0525 23.98C67.0525 26.78 66.4658 28.94 65.2925 30.46C64.1458 31.9533 62.6258 32.7 60.7325 32.7ZM60.7325 31.82C61.7725 31.82 62.5725 31.3667 63.1325 30.46C63.6925 29.5533 63.9725 28.0733 63.9725 26.02V21.94C63.9725 19.8867 63.6925 18.4067 63.1325 17.5C62.5725 16.5933 61.7725 16.14 60.7325 16.14C59.6658 16.14 58.8525 16.5933 58.2925 17.5C57.7592 18.4067 57.4925 19.8867 57.4925 21.94V26.02C57.4925 28.0733 57.7592 29.5533 58.2925 30.46C58.8525 31.3667 59.6658 31.82 60.7325 31.82Z" fill="white"/>
</svg>
