<svg width="86" height="35" viewBox="0 0 86 35" fill="none" xmlns="http://www.w3.org/2000/svg">
<path d="M9.16985 34.3C7.51651 34.3 5.99651 33.98 4.60985 33.34C3.24985 32.7 2.16985 31.8333 1.36985 30.74C0.569845 29.6467 0.169845 28.42 0.169845 27.06C0.169845 25.9667 0.476512 25.1133 1.08985 24.5C1.70318 23.86 2.43651 23.54 3.28985 23.54C4.08985 23.54 4.78318 23.7933 5.36985 24.3C5.95651 24.8067 6.24985 25.54 6.24985 26.5C4.83651 27.1933 4.12985 28.26 4.12985 29.7C4.12985 30.7933 4.58318 31.6867 5.48985 32.38C6.42318 33.0467 7.64985 33.38 9.16985 33.38C11.0898 33.38 12.6498 32.66 13.8498 31.22C15.0498 29.78 15.6498 27.7667 15.6498 25.18C15.6498 22.38 14.8498 20.22 13.2498 18.7C11.6498 17.1533 9.28985 16.2867 6.16985 16.1V15.22C8.96985 15.06 11.1432 14.3133 12.6898 12.98C14.2632 11.62 15.0498 9.79333 15.0498 7.5C15.0498 5.71333 14.5565 4.28667 13.5698 3.22C12.6098 2.15333 11.3165 1.62 9.68985 1.62C8.22318 1.62 7.06318 1.87333 6.20985 2.38C5.38318 2.86 4.96985 3.54 4.96985 4.42C4.96985 5.83333 5.63651 6.84667 6.96985 7.46C6.96985 8.36667 6.68985 9.07333 6.12985 9.58C5.59651 10.06 4.94318 10.3 4.16985 10.3C3.36985 10.3 2.67651 9.99333 2.08985 9.38C1.50318 8.76666 1.20985 7.95333 1.20985 6.94C1.20985 5.74 1.62318 4.67333 2.44985 3.74C3.27651 2.78 4.36985 2.03333 5.72985 1.5C7.11651 0.966665 8.58318 0.699998 10.1298 0.699998C13.1698 0.699998 15.5432 1.31333 17.2498 2.54C18.9565 3.76666 19.8098 5.48666 19.8098 7.7C19.8098 10.02 18.9698 11.82 17.2898 13.1C15.6365 14.3533 13.2232 15.1933 10.0498 15.62V15.74C13.3832 15.9 16.0632 16.7933 18.0898 18.42C20.1432 20.02 21.1698 22.2733 21.1698 25.18C21.1698 26.8067 20.7165 28.3133 19.8098 29.7C18.9298 31.0867 17.5832 32.2067 15.7698 33.06C13.9832 33.8867 11.7832 34.3 9.16985 34.3ZM38.8145 34.3C36.4945 34.3 34.4679 33.6733 32.7345 32.42C31.0012 31.1667 29.6545 29.2867 28.6945 26.78C27.7345 24.2467 27.2545 21.1533 27.2545 17.5C27.2545 13.8467 27.7345 10.7667 28.6945 8.26C29.6545 5.72667 31.0012 3.83333 32.7345 2.58C34.4679 1.32666 36.4945 0.699998 38.8145 0.699998C41.1345 0.699998 43.1612 1.32666 44.8945 2.58C46.6279 3.83333 47.9745 5.72667 48.9345 8.26C49.8945 10.7667 50.3745 13.8467 50.3745 17.5C50.3745 21.1533 49.8945 24.2467 48.9345 26.78C47.9745 29.2867 46.6279 31.1667 44.8945 32.42C43.1612 33.6733 41.1345 34.3 38.8145 34.3ZM38.8145 33.38C40.8145 33.38 42.3879 32.4067 43.5345 30.46C44.6812 28.5133 45.2545 25.4733 45.2545 21.34V13.62C45.2545 9.51333 44.6812 6.48667 43.5345 4.54C42.3879 2.59333 40.8145 1.62 38.8145 1.62C36.8145 1.62 35.2412 2.59333 34.0945 4.54C32.9479 6.48667 32.3745 9.51333 32.3745 13.62V21.34C32.3745 25.4467 32.9479 28.4867 34.0945 30.46C35.2412 32.4067 36.8145 33.38 38.8145 33.38ZM62.1861 18.7C60.2928 18.7 58.7594 17.9533 57.5861 16.46C56.4394 14.94 55.8661 12.78 55.8661 9.98C55.8661 7.18 56.4394 5.03333 57.5861 3.54C58.7594 2.04666 60.2928 1.3 62.1861 1.3C64.1061 1.3 65.6394 2.04666 66.7861 3.54C67.9594 5.03333 68.5461 7.18 68.5461 9.98C68.5461 12.78 67.9594 14.94 66.7861 16.46C65.6394 17.9533 64.1061 18.7 62.1861 18.7ZM61.9061 33.5L77.9061 1.5H79.9461L63.9861 33.5H61.9061ZM62.1861 17.82C63.2528 17.82 64.0528 17.3667 64.5861 16.46C65.1461 15.5533 65.4261 14.0733 65.4261 12.02V7.94C65.4261 5.88667 65.1461 4.40667 64.5861 3.5C64.0528 2.59333 63.2528 2.14 62.1861 2.14C61.1461 2.14 60.3461 2.59333 59.7861 3.5C59.2261 4.40667 58.9461 5.88667 58.9461 7.94V12.02C58.9461 14.0733 59.2261 15.5533 59.7861 16.46C60.3461 17.3667 61.1461 17.82 62.1861 17.82ZM79.6661 33.7C77.7461 33.7 76.1994 32.9533 75.0261 31.46C73.8794 29.94 73.3061 27.78 73.3061 24.98C73.3061 22.18 73.8794 20.0333 75.0261 18.54C76.1994 17.0467 77.7461 16.3 79.6661 16.3C81.5594 16.3 83.0794 17.0467 84.2261 18.54C85.3994 20.0333 85.9861 22.18 85.9861 24.98C85.9861 27.78 85.3994 29.94 84.2261 31.46C83.0794 32.9533 81.5594 33.7 79.6661 33.7ZM79.6661 32.82C80.7061 32.82 81.5061 32.3667 82.0661 31.46C82.6261 30.5533 82.9061 29.0733 82.9061 27.02V22.94C82.9061 20.8867 82.6261 19.4067 82.0661 18.5C81.5061 17.5933 80.7061 17.14 79.6661 17.14C78.5994 17.14 77.7861 17.5933 77.2261 18.5C76.6928 19.4067 76.4261 20.8867 76.4261 22.94V27.02C76.4261 29.0733 76.6928 30.5533 77.2261 31.46C77.7861 32.3667 78.5994 32.82 79.6661 32.82Z" fill="white"/>
</svg>
