<svg width="146" height="31" viewBox="0 0 146 31" fill="none" xmlns="http://www.w3.org/2000/svg">
<path d="M0.52609 30V29.244L3.83809 28.704V2.496L0.52609 1.992V1.2H11.1101V1.992L7.79809 2.496V29.136H18.5621L21.5141 21.216H22.4861V30H0.52609ZM39.6235 30.72C37.0075 30.72 34.6675 30.084 32.6035 28.812C30.5395 27.54 28.9315 25.764 27.7795 23.484C26.6275 21.18 26.0515 18.552 26.0515 15.6C26.0515 12.648 26.6275 10.032 27.7795 7.752C28.9315 5.448 30.5395 3.66 32.6035 2.388C34.6675 1.116 37.0075 0.479998 39.6235 0.479998C42.2395 0.479998 44.5795 1.116 46.6435 2.388C48.7075 3.66 50.3155 5.448 51.4675 7.752C52.6195 10.032 53.1955 12.648 53.1955 15.6C53.1955 18.552 52.6195 21.18 51.4675 23.484C50.3155 25.764 48.7075 27.54 46.6435 28.812C44.5795 30.084 42.2395 30.72 39.6235 30.72ZM39.6235 29.892C41.3515 29.892 42.8995 29.436 44.2675 28.524C45.6595 27.612 46.7515 26.292 47.5435 24.564C48.3355 22.812 48.7315 20.748 48.7315 18.372V12.828C48.7315 10.452 48.3355 8.4 47.5435 6.672C46.7515 4.92 45.6595 3.588 44.2675 2.676C42.8995 1.764 41.3515 1.308 39.6235 1.308C37.8715 1.308 36.3115 1.764 34.9435 2.676C33.5755 3.588 32.4955 4.92 31.7035 6.672C30.9115 8.4 30.5155 10.452 30.5155 12.828V18.372C30.5155 20.748 30.9115 22.812 31.7035 24.564C32.4955 26.292 33.5755 27.612 34.9435 28.524C36.3115 29.436 37.8715 29.892 39.6235 29.892ZM78.5865 30.36C77.2425 30.36 76.2345 30.036 75.5625 29.388C74.8905 28.74 74.4345 27.636 74.1945 26.076L73.5105 21.252C73.2705 19.62 72.7065 18.348 71.8185 17.436C70.9545 16.5 69.5985 16.032 67.7505 16.032H64.9425V28.704L68.2545 29.244V30H57.6705V29.244L60.9825 28.704V2.496L57.6705 1.992V1.2H67.7505C71.6625 1.2 74.4945 1.812 76.2465 3.036C77.9985 4.26 78.8745 6.12 78.8745 8.616C78.8745 12.744 76.3785 15.132 71.3865 15.78V15.996C73.2345 16.26 74.7105 16.92 75.8145 17.976C76.9425 19.032 77.6505 20.436 77.9385 22.188L78.4065 25.284C78.5985 26.628 78.8145 27.54 79.0545 28.02C79.3185 28.5 79.7145 28.74 80.2425 28.74C80.6025 28.74 80.9865 28.632 81.3945 28.416C81.8025 28.176 82.1865 27.876 82.5465 27.516L83.1585 28.164C82.4625 28.956 81.7425 29.52 80.9985 29.856C80.2545 30.192 79.4505 30.36 78.5865 30.36ZM68.9745 15.168C70.7265 15.168 72.0825 14.64 73.0425 13.584C74.0265 12.504 74.5185 10.92 74.5185 8.832V8.076C74.5185 4.092 72.2625 2.1 67.7505 2.1H64.9425V15.168H68.9745ZM84.9067 30V29.244L88.2187 28.704V2.496L84.9067 1.992V1.2H106.579V9.444H105.607L102.835 2.1H92.1787V15.06H96.8587L98.9827 9.84H99.9187V21.216H98.9827L96.8227 15.924H92.1787V29.136H103.483L106.435 21.216H107.371V30H84.9067ZM126.908 30.36L116.18 2.496V27.804L119.636 29.244V30H111.932V29.244L115.316 27.804V2.496L112.004 1.992V1.2H119.96L128.996 24.312L138.212 1.2H145.484V1.992L142.172 2.496V28.704L145.484 29.244V30H134.9V29.244L138.212 28.704V3.576L127.556 30.36H126.908Z" fill="white"/>
</svg>
